<svg xmlns="http://www.w3.org/2000/svg" xmlns:xlink="http://www.w3.org/1999/xlink" width="500" zoomAndPan="magnify" viewBox="0 0 375 374.999991" height="500" preserveAspectRatio="xMidYMid meet" version="1.0"><defs><clipPath id="id1"><path d="M 5.054688 5.054688 L 370.304688 5.054688 L 370.304688 370.304688 L 5.054688 370.304688 Z M 5.054688 5.054688 " clip-rule="nonzero"/></clipPath></defs><g clip-path="url(#id1)"><path fill="#ffcc80" d="M 187.679688 370.304688 C 190.671875 370.304688 193.65625 370.234375 196.640625 370.085938 C 199.628906 369.941406 202.605469 369.71875 205.582031 369.425781 C 208.554688 369.132812 211.519531 368.769531 214.476562 368.328125 C 217.433594 367.890625 220.378906 367.378906 223.308594 366.796875 C 226.242188 366.214844 229.15625 365.558594 232.054688 364.832031 C 234.953125 364.105469 237.835938 363.308594 240.695312 362.441406 C 243.554688 361.574219 246.390625 360.636719 249.207031 359.628906 C 252.019531 358.625 254.808594 357.546875 257.570312 356.40625 C 260.328125 355.261719 263.0625 354.050781 265.761719 352.773438 C 268.464844 351.496094 271.132812 350.152344 273.769531 348.742188 C 276.40625 347.332031 279.003906 345.859375 281.570312 344.324219 C 284.132812 342.789062 286.65625 341.1875 289.140625 339.527344 C 291.628906 337.867188 294.070312 336.148438 296.472656 334.367188 C 298.871094 332.585938 301.226562 330.75 303.539062 328.851562 C 305.847656 326.957031 308.109375 325.003906 310.324219 322.996094 C 312.539062 320.988281 314.703125 318.929688 316.816406 316.816406 C 318.929688 314.703125 320.988281 312.539062 322.996094 310.324219 C 325.003906 308.109375 326.957031 305.847656 328.851562 303.539062 C 330.75 301.226562 332.585938 298.871094 334.367188 296.472656 C 336.148438 294.070312 337.867188 291.628906 339.527344 289.140625 C 341.1875 286.65625 342.789062 284.132812 344.324219 281.570312 C 345.859375 279.003906 347.332031 276.40625 348.742188 273.769531 C 350.152344 271.132812 351.496094 268.464844 352.773438 265.761719 C 354.050781 263.0625 355.261719 260.328125 356.40625 257.570312 C 357.546875 254.808594 358.625 252.019531 359.628906 249.207031 C 360.636719 246.390625 361.574219 243.554688 362.441406 240.695312 C 363.308594 237.835938 364.105469 234.953125 364.832031 232.054688 C 365.558594 229.15625 366.214844 226.242188 366.796875 223.308594 C 367.378906 220.378906 367.890625 217.433594 368.328125 214.476562 C 368.769531 211.519531 369.132812 208.554688 369.425781 205.582031 C 369.71875 202.605469 369.941406 199.628906 370.085938 196.640625 C 370.234375 193.65625 370.304688 190.671875 370.304688 187.679688 C 370.304688 184.691406 370.234375 181.707031 370.085938 178.71875 C 369.941406 175.734375 369.71875 172.753906 369.425781 169.78125 C 369.132812 166.804688 368.769531 163.839844 368.328125 160.882812 C 367.890625 157.929688 367.378906 154.984375 366.796875 152.054688 C 366.214844 149.121094 365.558594 146.207031 364.832031 143.308594 C 364.105469 140.40625 363.308594 137.527344 362.441406 134.667969 C 361.574219 131.808594 360.636719 128.972656 359.628906 126.15625 C 358.625 123.34375 357.546875 120.554688 356.40625 117.792969 C 355.261719 115.03125 354.050781 112.300781 352.773438 109.597656 C 351.496094 106.898438 350.152344 104.226562 348.742188 101.59375 C 347.332031 98.957031 345.859375 96.355469 344.324219 93.792969 C 342.789062 91.230469 341.1875 88.707031 339.527344 86.21875 C 337.867188 83.734375 336.148438 81.292969 334.367188 78.890625 C 332.585938 76.492188 330.75 74.136719 328.851562 71.824219 C 326.957031 69.515625 325.003906 67.253906 322.996094 65.039062 C 320.988281 62.824219 318.929688 60.660156 316.816406 58.546875 C 314.703125 56.433594 312.539062 54.371094 310.324219 52.363281 C 308.109375 50.359375 305.847656 48.40625 303.539062 46.511719 C 301.226562 44.613281 298.871094 42.777344 296.472656 40.996094 C 294.070312 39.214844 291.628906 37.496094 289.140625 35.835938 C 286.65625 34.171875 284.132812 32.574219 281.570312 31.039062 C 279.003906 29.5 276.40625 28.027344 273.769531 26.621094 C 271.132812 25.210938 268.464844 23.867188 265.761719 22.589844 C 263.0625 21.3125 260.328125 20.101562 257.570312 18.957031 C 254.808594 17.8125 252.019531 16.738281 249.207031 15.730469 C 246.390625 14.726562 243.554688 13.789062 240.695312 12.921875 C 237.835938 12.050781 234.953125 11.253906 232.054688 10.527344 C 229.15625 9.804688 226.242188 9.148438 223.308594 8.566406 C 220.378906 7.980469 217.433594 7.472656 214.476562 7.03125 C 211.519531 6.59375 208.554688 6.230469 205.582031 5.9375 C 202.605469 5.644531 199.628906 5.421875 196.640625 5.277344 C 193.65625 5.128906 190.671875 5.054688 187.679688 5.054688 C 184.691406 5.054688 181.707031 5.128906 178.71875 5.277344 C 175.734375 5.421875 172.753906 5.644531 169.78125 5.9375 C 166.804688 6.230469 163.839844 6.59375 160.882812 7.03125 C 157.929688 7.472656 154.984375 7.980469 152.054688 8.566406 C 149.121094 9.148438 146.207031 9.804688 143.308594 10.527344 C 140.40625 11.253906 137.527344 12.050781 134.667969 12.921875 C 131.808594 13.789062 128.972656 14.726562 126.15625 15.730469 C 123.34375 16.738281 120.554688 17.8125 117.792969 18.957031 C 115.03125 20.101562 112.300781 21.3125 109.597656 22.589844 C 106.898438 23.867188 104.226562 25.210938 101.59375 26.621094 C 98.957031 28.027344 96.355469 29.5 93.792969 31.039062 C 91.230469 32.574219 88.707031 34.171875 86.21875 35.835938 C 83.734375 37.496094 81.292969 39.214844 78.890625 40.996094 C 76.492188 42.777344 74.136719 44.613281 71.824219 46.511719 C 69.515625 48.40625 67.253906 50.359375 65.039062 52.363281 C 62.824219 54.371094 60.660156 56.433594 58.546875 58.546875 C 56.433594 60.660156 54.371094 62.824219 52.363281 65.039062 C 50.359375 67.253906 48.40625 69.515625 46.511719 71.824219 C 44.613281 74.136719 42.777344 76.492188 40.996094 78.890625 C 39.214844 81.292969 37.496094 83.734375 35.835938 86.21875 C 34.171875 88.707031 32.574219 91.230469 31.039062 93.792969 C 29.5 96.355469 28.027344 98.957031 26.621094 101.59375 C 25.210938 104.226562 23.867188 106.898438 22.589844 109.597656 C 21.3125 112.300781 20.101562 115.03125 18.957031 117.792969 C 17.8125 120.554688 16.738281 123.34375 15.730469 126.15625 C 14.726562 128.972656 13.789062 131.808594 12.921875 134.667969 C 12.050781 137.527344 11.253906 140.40625 10.527344 143.308594 C 9.804688 146.207031 9.148438 149.121094 8.566406 152.054688 C 7.980469 154.984375 7.472656 157.929688 7.03125 160.882812 C 6.59375 163.839844 6.230469 166.804688 5.9375 169.78125 C 5.644531 172.753906 5.421875 175.734375 5.277344 178.71875 C 5.128906 181.707031 5.054688 184.691406 5.054688 187.679688 C 5.054688 190.671875 5.128906 193.65625 5.277344 196.640625 C 5.421875 199.628906 5.644531 202.605469 5.9375 205.582031 C 6.230469 208.554688 6.59375 211.519531 7.03125 214.476562 C 7.472656 217.433594 7.980469 220.378906 8.566406 223.308594 C 9.148438 226.242188 9.804688 229.15625 10.527344 232.054688 C 11.253906 234.953125 12.050781 237.835938 12.921875 240.695312 C 13.789062 243.554688 14.726562 246.390625 15.730469 249.207031 C 16.738281 252.019531 17.8125 254.808594 18.957031 257.570312 C 20.101562 260.328125 21.3125 263.0625 22.589844 265.761719 C 23.867188 268.464844 25.210938 271.132812 26.621094 273.769531 C 28.027344 276.40625 29.5 279.003906 31.039062 281.570312 C 32.574219 284.132812 34.171875 286.65625 35.835938 289.140625 C 37.496094 291.628906 39.214844 294.070312 40.996094 296.472656 C 42.777344 298.871094 44.613281 301.226562 46.511719 303.539062 C 48.40625 305.847656 50.359375 308.109375 52.363281 310.324219 C 54.371094 312.539062 56.433594 314.703125 58.546875 316.816406 C 60.660156 318.929688 62.824219 320.988281 65.039062 322.996094 C 67.253906 325.003906 69.515625 326.957031 71.824219 328.851562 C 74.136719 330.75 76.492188 332.585938 78.890625 334.367188 C 81.292969 336.148438 83.734375 337.867188 86.21875 339.527344 C 88.707031 341.1875 91.230469 342.789062 93.792969 344.324219 C 96.355469 345.859375 98.957031 347.332031 101.59375 348.742188 C 104.226562 350.152344 106.898438 351.496094 109.597656 352.773438 C 112.300781 354.050781 115.03125 355.261719 117.792969 356.40625 C 120.554688 357.546875 123.34375 358.625 126.15625 359.628906 C 128.972656 360.636719 131.808594 361.574219 134.667969 362.441406 C 137.527344 363.308594 140.40625 364.105469 143.308594 364.832031 C 146.207031 365.558594 149.121094 366.214844 152.054688 366.796875 C 154.984375 367.378906 157.929688 367.890625 160.882812 368.328125 C 163.839844 368.769531 166.804688 369.132812 169.78125 369.425781 C 172.753906 369.71875 175.734375 369.941406 178.71875 370.085938 C 181.707031 370.234375 184.691406 370.304688 187.679688 370.304688 Z M 260.730469 262.007812 C 260.730469 260.511719 260.824219 259.019531 261.007812 257.535156 C 261.191406 256.046875 261.464844 254.578125 261.828125 253.125 C 262.191406 251.671875 262.644531 250.246094 263.183594 248.851562 C 263.722656 247.453125 264.347656 246.09375 265.050781 244.773438 C 265.757812 243.453125 266.542969 242.179688 267.40625 240.957031 C 268.269531 239.734375 269.207031 238.566406 270.210938 237.457031 C 271.21875 236.347656 272.289062 235.304688 273.425781 234.328125 C 274.558594 233.351562 275.75 232.449219 276.996094 231.617188 L 315.519531 205.945312 L 315.519531 187.679688 C 315.519531 186.238281 315.605469 184.800781 315.777344 183.371094 C 315.949219 181.9375 316.207031 180.523438 316.546875 179.121094 C 316.886719 177.71875 317.308594 176.34375 317.8125 174.992188 C 318.316406 173.640625 318.898438 172.324219 319.558594 171.042969 C 320.222656 169.761719 320.953125 168.523438 321.761719 167.328125 C 322.570312 166.136719 323.445312 164.992188 324.390625 163.902344 C 325.332031 162.8125 326.335938 161.78125 327.402344 160.808594 C 328.46875 159.839844 329.589844 158.933594 330.761719 158.097656 C 331.507812 161.707031 332.117188 165.339844 332.585938 168.996094 C 333.058594 172.652344 333.390625 176.320312 333.582031 180.003906 C 333.773438 183.683594 333.828125 187.367188 333.742188 191.054688 C 333.652344 194.738281 333.425781 198.414062 333.0625 202.082031 C 332.695312 205.75 332.191406 209.402344 331.546875 213.03125 C 330.90625 216.660156 330.128906 220.261719 329.210938 223.832031 C 328.296875 227.402344 327.246094 230.933594 326.0625 234.425781 C 324.878906 237.917969 323.566406 241.359375 322.121094 244.75 C 320.675781 248.140625 319.105469 251.472656 317.40625 254.746094 C 315.710938 258.019531 313.890625 261.222656 311.953125 264.359375 C 310.011719 267.492188 307.957031 270.550781 305.78125 273.527344 C 303.609375 276.507812 301.328125 279.398438 298.9375 282.203125 C 296.546875 285.007812 294.050781 287.71875 291.457031 290.335938 C 288.859375 292.953125 286.164062 295.46875 283.378906 297.878906 C 280.589844 300.292969 277.714844 302.59375 274.753906 304.789062 C 271.789062 306.984375 268.75 309.0625 265.628906 311.027344 C 262.425781 302.734375 260.792969 294.148438 260.730469 285.257812 Z M 187.679688 41.582031 C 200.242188 41.628906 212.59375 43.277344 224.726562 46.523438 C 211.519531 56.476562 215.820312 78.105469 187.679688 78.105469 C 164.910156 78.105469 156.339844 99.394531 153.113281 115.429688 C 156.449219 114.894531 159.804688 114.628906 163.1875 114.632812 C 165.5 114.835938 167.789062 115.203125 170.050781 115.738281 C 172.3125 116.269531 174.523438 116.964844 176.683594 117.816406 C 178.847656 118.667969 180.9375 119.671875 182.953125 120.824219 C 184.96875 121.980469 186.894531 123.269531 188.726562 124.703125 C 190.554688 126.132812 192.273438 127.6875 193.878906 129.367188 C 195.488281 131.046875 196.964844 132.832031 198.316406 134.722656 C 199.664062 136.613281 200.871094 138.59375 201.933594 140.660156 C 203 142.722656 203.910156 144.855469 204.664062 147.050781 C 218.488281 179.472656 232.3125 163.261719 218.488281 195.683594 C 204.667969 228.101562 177.019531 211.890625 177.019531 244.3125 C 177.019531 276.734375 149.371094 309.144531 135.546875 292.945312 C 118.375 267.640625 104.546875 240.621094 94.066406 211.890625 C 80.246094 179.472656 66.421875 163.261719 94.066406 147.058594 C 99.910156 143.628906 105.066406 140.230469 109.941406 136.953125 C 105.410156 135.140625 100.773438 133.675781 96.027344 132.554688 C 91.277344 131.4375 86.476562 130.679688 81.613281 130.277344 C 76.753906 129.878906 71.890625 129.84375 67.023438 130.171875 C 62.15625 130.5 57.34375 131.1875 52.578125 132.234375 C 53.945312 128.910156 55.433594 125.640625 57.042969 122.421875 C 58.652344 119.207031 60.375 116.054688 62.21875 112.964844 C 64.058594 109.878906 66.011719 106.859375 68.074219 103.914062 C 70.136719 100.972656 72.308594 98.105469 74.582031 95.320312 C 76.855469 92.535156 79.230469 89.839844 81.707031 87.230469 C 84.179688 84.621094 86.746094 82.105469 89.40625 79.683594 C 92.0625 77.261719 94.808594 74.945312 97.640625 72.726562 C 100.46875 70.507812 103.378906 68.398438 106.363281 66.394531 C 109.351562 64.390625 112.40625 62.5 115.53125 60.71875 C 118.65625 58.941406 121.84375 57.28125 125.089844 55.738281 C 128.339844 54.195312 131.640625 52.773438 134.992188 51.472656 C 138.34375 50.171875 141.742188 49 145.179688 47.949219 C 148.621094 46.898438 152.09375 45.976562 155.601562 45.183594 C 159.109375 44.390625 162.640625 43.730469 166.195312 43.195312 C 169.75 42.664062 173.324219 42.261719 176.910156 41.992188 C 180.496094 41.722656 184.085938 41.585938 187.679688 41.582031 Z M 187.679688 41.582031 " fill-opacity="1" fill-rule="nonzero"/></g></svg>